<mxfile host="app.diagrams.net" modified="2022-10-21T06:34:30.945Z" agent="5.0 (X11; Linux x86_64) AppleWebKit/537.36 (KHTML, like Gecko) Chrome/106.0.0.0 Safari/537.36" etag="Y2QW8Sqf-i2ParZROKab" version="20.4.2" type="github">
  <diagram id="HkQYsWc69piOvw44vYo9" name="Page-1">
    <mxGraphModel dx="1553" dy="606" grid="1" gridSize="10" guides="1" tooltips="1" connect="1" arrows="1" fold="1" page="1" pageScale="1" pageWidth="1100" pageHeight="850" math="0" shadow="0">
      <root>
        <mxCell id="0" />
        <mxCell id="1" parent="0" />
        <mxCell id="Hhl-vOY3byRLRuOCpXQu-74" value="" style="rounded=1;whiteSpace=wrap;html=1;shadow=0;strokeWidth=4;fontSize=10;" parent="1" vertex="1">
          <mxGeometry x="60" y="115" width="800" height="580" as="geometry" />
        </mxCell>
        <mxCell id="Hhl-vOY3byRLRuOCpXQu-68" style="edgeStyle=orthogonalEdgeStyle;curved=1;rounded=0;orthogonalLoop=1;jettySize=auto;html=1;exitX=0;exitY=0.5;exitDx=0;exitDy=0;entryX=0.5;entryY=1;entryDx=0;entryDy=0;fontSize=10;" parent="1" source="Hhl-vOY3byRLRuOCpXQu-36" target="Hhl-vOY3byRLRuOCpXQu-65" edge="1">
          <mxGeometry relative="1" as="geometry" />
        </mxCell>
        <mxCell id="Hhl-vOY3byRLRuOCpXQu-36" value="" style="whiteSpace=wrap;html=1;aspect=fixed;" parent="1" vertex="1">
          <mxGeometry x="510" y="360" width="310" height="310" as="geometry" />
        </mxCell>
        <mxCell id="Hhl-vOY3byRLRuOCpXQu-40" value="" style="whiteSpace=wrap;html=1;rounded=0;align=left;" parent="1" vertex="1">
          <mxGeometry x="530" y="500" width="130" height="100" as="geometry" />
        </mxCell>
        <mxCell id="Hhl-vOY3byRLRuOCpXQu-47" value="" style="rounded=0;whiteSpace=wrap;html=1;" parent="1" vertex="1">
          <mxGeometry x="535.43" y="515" width="113" height="50" as="geometry" />
        </mxCell>
        <mxCell id="Hhl-vOY3byRLRuOCpXQu-66" style="edgeStyle=orthogonalEdgeStyle;curved=1;rounded=0;orthogonalLoop=1;jettySize=auto;html=1;exitX=0;exitY=1;exitDx=0;exitDy=0;entryX=1;entryY=0;entryDx=0;entryDy=0;fontSize=10;" parent="1" source="Hhl-vOY3byRLRuOCpXQu-28" target="Hhl-vOY3byRLRuOCpXQu-65" edge="1">
          <mxGeometry relative="1" as="geometry" />
        </mxCell>
        <mxCell id="Hhl-vOY3byRLRuOCpXQu-28" value="" style="whiteSpace=wrap;html=1;rounded=0;" parent="1" vertex="1">
          <mxGeometry x="645.02" y="190" width="120" height="60" as="geometry" />
        </mxCell>
        <mxCell id="Hhl-vOY3byRLRuOCpXQu-70" style="edgeStyle=orthogonalEdgeStyle;curved=1;rounded=0;orthogonalLoop=1;jettySize=auto;html=1;exitX=0.25;exitY=1;exitDx=0;exitDy=0;entryX=1;entryY=0;entryDx=0;entryDy=0;fontSize=15;" parent="1" source="Hhl-vOY3byRLRuOCpXQu-25" target="Hhl-vOY3byRLRuOCpXQu-65" edge="1">
          <mxGeometry relative="1" as="geometry" />
        </mxCell>
        <mxCell id="Hhl-vOY3byRLRuOCpXQu-76" style="edgeStyle=orthogonalEdgeStyle;curved=1;rounded=0;orthogonalLoop=1;jettySize=auto;html=1;exitX=0.5;exitY=1;exitDx=0;exitDy=0;entryX=0.5;entryY=0;entryDx=0;entryDy=0;fontSize=12;fontColor=#FFFFFF;" parent="1" source="Hhl-vOY3byRLRuOCpXQu-25" target="Hhl-vOY3byRLRuOCpXQu-16" edge="1">
          <mxGeometry relative="1" as="geometry" />
        </mxCell>
        <mxCell id="Hhl-vOY3byRLRuOCpXQu-25" value="" style="whiteSpace=wrap;html=1;rounded=0;" parent="1" vertex="1">
          <mxGeometry x="445.19" y="190" width="120" height="60" as="geometry" />
        </mxCell>
        <mxCell id="Hhl-vOY3byRLRuOCpXQu-26" value="" style="edgeStyle=orthogonalEdgeStyle;rounded=0;orthogonalLoop=1;jettySize=auto;html=1;curved=1;" parent="1" source="Hhl-vOY3byRLRuOCpXQu-8" target="Hhl-vOY3byRLRuOCpXQu-25" edge="1">
          <mxGeometry relative="1" as="geometry" />
        </mxCell>
        <mxCell id="Hhl-vOY3byRLRuOCpXQu-8" value="" style="rounded=0;whiteSpace=wrap;html=1;" parent="1" vertex="1">
          <mxGeometry x="260" y="190" width="130" height="60" as="geometry" />
        </mxCell>
        <mxCell id="Hhl-vOY3byRLRuOCpXQu-6" value="" style="rounded=0;whiteSpace=wrap;html=1;" parent="1" vertex="1">
          <mxGeometry x="70" y="190" width="130" height="60" as="geometry" />
        </mxCell>
        <mxCell id="Hhl-vOY3byRLRuOCpXQu-3" value="" style="shape=image;imageAspect=0;aspect=fixed;verticalLabelPosition=bottom;verticalAlign=top;image=https://miro.medium.com/max/1400/1*GVXDkSvOm-vFfw7bg9WNag.png;" parent="1" vertex="1">
          <mxGeometry x="85.65" y="200" width="97.2" height="40" as="geometry" />
        </mxCell>
        <mxCell id="Hhl-vOY3byRLRuOCpXQu-4" value="" style="endArrow=classic;html=1;rounded=0;exitX=1;exitY=0.5;exitDx=0;exitDy=0;entryX=0;entryY=0.5;entryDx=0;entryDy=0;curved=1;" parent="1" source="Hhl-vOY3byRLRuOCpXQu-6" target="Hhl-vOY3byRLRuOCpXQu-8" edge="1">
          <mxGeometry width="50" height="50" relative="1" as="geometry">
            <mxPoint x="270.5" y="428" as="sourcePoint" />
            <mxPoint x="320.5" y="378" as="targetPoint" />
          </mxGeometry>
        </mxCell>
        <mxCell id="Hhl-vOY3byRLRuOCpXQu-7" value="" style="shape=image;imageAspect=0;aspect=fixed;verticalLabelPosition=bottom;verticalAlign=top;image=https://www.jenkins.io/images/logo-title-opengraph.png;" parent="1" vertex="1">
          <mxGeometry x="270.98" y="193.5" width="110" height="55" as="geometry" />
        </mxCell>
        <mxCell id="Hhl-vOY3byRLRuOCpXQu-12" value="" style="shape=image;imageAspect=0;aspect=fixed;verticalLabelPosition=bottom;verticalAlign=top;image=https://developers.redhat.com/sites/default/files/styles/article_feature/public/blog/2014/05/homepage-docker-logo.png?itok=zx0e-vcP;" parent="1" vertex="1">
          <mxGeometry x="474.96000000000004" y="198.75" width="60.47" height="50" as="geometry" />
        </mxCell>
        <mxCell id="Hhl-vOY3byRLRuOCpXQu-14" value="" style="shape=image;imageAspect=0;aspect=fixed;verticalLabelPosition=bottom;verticalAlign=top;image=https://kifarunix.com/wp-content/uploads/2021/10/nexux.png;" parent="1" vertex="1">
          <mxGeometry x="667" y="194" width="75.64" height="54" as="geometry" />
        </mxCell>
        <mxCell id="Hhl-vOY3byRLRuOCpXQu-38" style="edgeStyle=orthogonalEdgeStyle;rounded=0;orthogonalLoop=1;jettySize=auto;html=1;exitX=0.5;exitY=1;exitDx=0;exitDy=0;curved=1;" parent="1" source="Hhl-vOY3byRLRuOCpXQu-16" edge="1">
          <mxGeometry relative="1" as="geometry">
            <mxPoint x="750" y="500" as="targetPoint" />
            <Array as="points">
              <mxPoint x="653" y="475" />
              <mxPoint x="750" y="475" />
            </Array>
          </mxGeometry>
        </mxCell>
        <mxCell id="Hhl-vOY3byRLRuOCpXQu-41" value="" style="edgeStyle=orthogonalEdgeStyle;rounded=0;orthogonalLoop=1;jettySize=auto;html=1;curved=1;" parent="1" source="Hhl-vOY3byRLRuOCpXQu-16" target="Hhl-vOY3byRLRuOCpXQu-40" edge="1">
          <mxGeometry relative="1" as="geometry" />
        </mxCell>
        <mxCell id="Hhl-vOY3byRLRuOCpXQu-16" value="NODE MASTER" style="rounded=0;whiteSpace=wrap;html=1;" parent="1" vertex="1">
          <mxGeometry x="592.46" y="390" width="120" height="60" as="geometry" />
        </mxCell>
        <mxCell id="Hhl-vOY3byRLRuOCpXQu-30" value="" style="endArrow=classic;startArrow=classic;html=1;rounded=0;entryX=0;entryY=0.5;entryDx=0;entryDy=0;exitX=1;exitY=0.5;exitDx=0;exitDy=0;curved=1;" parent="1" source="Hhl-vOY3byRLRuOCpXQu-25" target="Hhl-vOY3byRLRuOCpXQu-28" edge="1">
          <mxGeometry width="50" height="50" relative="1" as="geometry">
            <mxPoint x="612.46" y="280" as="sourcePoint" />
            <mxPoint x="650" y="220" as="targetPoint" />
          </mxGeometry>
        </mxCell>
        <mxCell id="Hhl-vOY3byRLRuOCpXQu-37" value="" style="shape=image;imageAspect=0;aspect=fixed;verticalLabelPosition=bottom;verticalAlign=top;image=https://kubernetes.io/images/favicon.png;" parent="1" vertex="1">
          <mxGeometry x="484.08" y="330" width="60" height="60" as="geometry" />
        </mxCell>
        <mxCell id="Hhl-vOY3byRLRuOCpXQu-45" value="" style="shape=image;imageAspect=0;aspect=fixed;verticalLabelPosition=bottom;verticalAlign=top;image=https://developers.redhat.com/sites/default/files/styles/article_feature/public/blog/2014/05/homepage-docker-logo.png?itok=zx0e-vcP;" parent="1" vertex="1">
          <mxGeometry x="600" y="520" width="48.38" height="40" as="geometry" />
        </mxCell>
        <mxCell id="Hhl-vOY3byRLRuOCpXQu-46" value="" style="shape=image;imageAspect=0;aspect=fixed;verticalLabelPosition=bottom;verticalAlign=top;image=https://developers.redhat.com/sites/default/files/styles/article_feature/public/blog/2014/05/homepage-docker-logo.png?itok=zx0e-vcP;" parent="1" vertex="1">
          <mxGeometry x="544.08" y="520" width="48.38" height="40" as="geometry" />
        </mxCell>
        <mxCell id="Hhl-vOY3byRLRuOCpXQu-48" value="Pods" style="text;html=1;resizable=0;autosize=1;align=center;verticalAlign=middle;points=[];fillColor=none;strokeColor=none;rounded=0;shadow=0;strokeWidth=4;fontSize=15;" parent="1" vertex="1">
          <mxGeometry x="565" y="570" width="60" height="30" as="geometry" />
        </mxCell>
        <mxCell id="Hhl-vOY3byRLRuOCpXQu-49" style="edgeStyle=orthogonalEdgeStyle;rounded=0;orthogonalLoop=1;jettySize=auto;html=1;exitX=0.5;exitY=1;exitDx=0;exitDy=0;fontSize=15;curved=1;" parent="1" source="Hhl-vOY3byRLRuOCpXQu-40" target="Hhl-vOY3byRLRuOCpXQu-40" edge="1">
          <mxGeometry relative="1" as="geometry" />
        </mxCell>
        <mxCell id="Hhl-vOY3byRLRuOCpXQu-50" value="&lt;font style=&quot;font-size: 13px;&quot;&gt;NODE WORKER A&lt;/font&gt;" style="text;html=1;resizable=0;autosize=1;align=center;verticalAlign=middle;points=[];fillColor=none;strokeColor=none;rounded=0;shadow=0;strokeWidth=4;fontSize=15;" parent="1" vertex="1">
          <mxGeometry x="530" y="600" width="130" height="30" as="geometry" />
        </mxCell>
        <mxCell id="Hhl-vOY3byRLRuOCpXQu-51" value="" style="whiteSpace=wrap;html=1;rounded=0;align=left;" parent="1" vertex="1">
          <mxGeometry x="680" y="500" width="130" height="100" as="geometry" />
        </mxCell>
        <mxCell id="Hhl-vOY3byRLRuOCpXQu-52" value="" style="rounded=0;whiteSpace=wrap;html=1;" parent="1" vertex="1">
          <mxGeometry x="685.43" y="515" width="113" height="50" as="geometry" />
        </mxCell>
        <mxCell id="Hhl-vOY3byRLRuOCpXQu-53" value="" style="shape=image;imageAspect=0;aspect=fixed;verticalLabelPosition=bottom;verticalAlign=top;image=https://developers.redhat.com/sites/default/files/styles/article_feature/public/blog/2014/05/homepage-docker-logo.png?itok=zx0e-vcP;" parent="1" vertex="1">
          <mxGeometry x="750" y="520" width="48.38" height="40" as="geometry" />
        </mxCell>
        <mxCell id="Hhl-vOY3byRLRuOCpXQu-54" value="" style="shape=image;imageAspect=0;aspect=fixed;verticalLabelPosition=bottom;verticalAlign=top;image=https://developers.redhat.com/sites/default/files/styles/article_feature/public/blog/2014/05/homepage-docker-logo.png?itok=zx0e-vcP;" parent="1" vertex="1">
          <mxGeometry x="694.08" y="520" width="48.38" height="40" as="geometry" />
        </mxCell>
        <mxCell id="Hhl-vOY3byRLRuOCpXQu-55" value="Pods" style="text;html=1;resizable=0;autosize=1;align=center;verticalAlign=middle;points=[];fillColor=none;strokeColor=none;rounded=0;shadow=0;strokeWidth=4;fontSize=15;" parent="1" vertex="1">
          <mxGeometry x="715" y="570" width="60" height="30" as="geometry" />
        </mxCell>
        <mxCell id="Hhl-vOY3byRLRuOCpXQu-56" style="edgeStyle=orthogonalEdgeStyle;rounded=0;orthogonalLoop=1;jettySize=auto;html=1;exitX=0.5;exitY=1;exitDx=0;exitDy=0;fontSize=15;curved=1;" parent="1" source="Hhl-vOY3byRLRuOCpXQu-51" target="Hhl-vOY3byRLRuOCpXQu-51" edge="1">
          <mxGeometry relative="1" as="geometry" />
        </mxCell>
        <mxCell id="Hhl-vOY3byRLRuOCpXQu-57" value="&lt;font style=&quot;font-size: 13px;&quot;&gt;NODE WORKER B&lt;/font&gt;" style="text;html=1;resizable=0;autosize=1;align=center;verticalAlign=middle;points=[];fillColor=none;strokeColor=none;rounded=0;shadow=0;strokeWidth=4;fontSize=15;" parent="1" vertex="1">
          <mxGeometry x="675" y="600" width="140" height="30" as="geometry" />
        </mxCell>
        <mxCell id="Hhl-vOY3byRLRuOCpXQu-59" value="&lt;font style=&quot;&quot;&gt;&lt;font style=&quot;font-size: 12px;&quot;&gt;Push repository&lt;br&gt;&amp;nbsp;from gitlab&lt;/font&gt;&lt;br&gt;&lt;/font&gt;" style="text;html=1;resizable=0;autosize=1;align=center;verticalAlign=middle;points=[];fillColor=none;strokeColor=none;rounded=0;shadow=0;strokeWidth=4;fontSize=13;" parent="1" vertex="1">
          <mxGeometry x="77.85" y="141" width="110" height="40" as="geometry" />
        </mxCell>
        <mxCell id="Hhl-vOY3byRLRuOCpXQu-60" value="&lt;span style=&quot;font-size: 12px;&quot;&gt;Jenkins will use SCM &lt;br&gt;from gitlab and will auto &lt;br&gt;trigger&lt;/span&gt;" style="text;html=1;resizable=0;autosize=1;align=center;verticalAlign=middle;points=[];fillColor=none;strokeColor=none;rounded=0;shadow=0;strokeWidth=4;fontSize=12;" parent="1" vertex="1">
          <mxGeometry x="245.98000000000002" y="130" width="150" height="60" as="geometry" />
        </mxCell>
        <mxCell id="Hhl-vOY3byRLRuOCpXQu-61" value="&lt;span style=&quot;font-size: 12px;&quot;&gt;Jenkins will build &lt;br&gt;docker image&lt;br&gt;&lt;/span&gt;" style="text;html=1;resizable=0;autosize=1;align=center;verticalAlign=middle;points=[];fillColor=none;strokeColor=none;rounded=0;shadow=0;strokeWidth=4;fontSize=12;" parent="1" vertex="1">
          <mxGeometry x="450.43" y="145" width="110" height="40" as="geometry" />
        </mxCell>
        <mxCell id="Hhl-vOY3byRLRuOCpXQu-62" value="push artifact docker&lt;br&gt;&amp;nbsp;to nexus registry" style="text;html=1;resizable=0;autosize=1;align=center;verticalAlign=middle;points=[];fillColor=none;strokeColor=none;rounded=0;shadow=0;strokeWidth=4;fontSize=12;" parent="1" vertex="1">
          <mxGeometry x="639.8199999999999" y="145" width="130" height="40" as="geometry" />
        </mxCell>
        <mxCell id="Hhl-vOY3byRLRuOCpXQu-63" value="Kubernetes node master&lt;br&gt;&amp;nbsp;will pull docker image&lt;br&gt;from nexus repository" style="text;html=1;resizable=0;autosize=1;align=center;verticalAlign=middle;points=[];fillColor=none;strokeColor=none;rounded=0;shadow=0;strokeWidth=4;fontSize=10;" parent="1" vertex="1">
          <mxGeometry x="648.43" y="300" width="130" height="50" as="geometry" />
        </mxCell>
        <mxCell id="Hhl-vOY3byRLRuOCpXQu-64" value="deploy pods to node &lt;br&gt;worker from &lt;br&gt;node master" style="text;html=1;resizable=0;autosize=1;align=center;verticalAlign=middle;points=[];fillColor=none;strokeColor=none;rounded=0;shadow=0;strokeWidth=4;fontSize=10;" parent="1" vertex="1">
          <mxGeometry x="710" y="410" width="110" height="50" as="geometry" />
        </mxCell>
        <mxCell id="Hhl-vOY3byRLRuOCpXQu-71" style="edgeStyle=orthogonalEdgeStyle;curved=1;rounded=0;orthogonalLoop=1;jettySize=auto;html=1;exitX=0.5;exitY=0;exitDx=0;exitDy=0;entryX=0.5;entryY=1;entryDx=0;entryDy=0;fontSize=15;" parent="1" source="Hhl-vOY3byRLRuOCpXQu-65" target="Hhl-vOY3byRLRuOCpXQu-8" edge="1">
          <mxGeometry relative="1" as="geometry" />
        </mxCell>
        <mxCell id="Hhl-vOY3byRLRuOCpXQu-65" value="" style="rounded=1;whiteSpace=wrap;html=1;shadow=0;strokeWidth=4;fontSize=10;fillColor=#a20025;strokeColor=#6F0000;fontColor=#ffffff;" parent="1" vertex="1">
          <mxGeometry x="260.98" y="380" width="89.02" height="50" as="geometry" />
        </mxCell>
        <mxCell id="Hhl-vOY3byRLRuOCpXQu-69" value="&lt;span style=&quot;font-size: 15px;&quot;&gt;&lt;font color=&quot;#ffffff&quot;&gt;FAILED&lt;/font&gt;&lt;br style=&quot;font-size: 15px;&quot;&gt;&lt;/span&gt;" style="text;html=1;resizable=0;autosize=1;align=center;verticalAlign=middle;points=[];fillColor=none;strokeColor=none;rounded=0;shadow=0;strokeWidth=4;fontSize=15;" parent="1" vertex="1">
          <mxGeometry x="265.49" y="390" width="80" height="30" as="geometry" />
        </mxCell>
        <mxCell id="Hhl-vOY3byRLRuOCpXQu-72" value="If fail process will stop and back &lt;br&gt;to jenkins with logs" style="text;html=1;resizable=0;autosize=1;align=center;verticalAlign=middle;points=[];fillColor=none;strokeColor=none;rounded=0;shadow=0;strokeWidth=4;fontSize=12;" parent="1" vertex="1">
          <mxGeometry x="89.99999999999999" y="350" width="190" height="40" as="geometry" />
        </mxCell>
        <mxCell id="Hhl-vOY3byRLRuOCpXQu-73" value="&lt;font style=&quot;font-size: 12px;&quot;&gt;&lt;br style=&quot;font-size: 12px;&quot;&gt;&lt;/font&gt;" style="text;html=1;resizable=0;autosize=1;align=center;verticalAlign=middle;points=[];fillColor=none;strokeColor=none;rounded=0;shadow=0;strokeWidth=4;fontSize=12;" parent="1" vertex="1">
          <mxGeometry x="217.85" y="250" width="20" height="30" as="geometry" />
        </mxCell>
      </root>
    </mxGraphModel>
  </diagram>
</mxfile>
